<svg width="48" height="38" viewBox="0 0 48 38" fill="none" xmlns="http://www.w3.org/2000/svg">
<path d="M0 5.875C0 2.9793 2.69063 0.625 6 0.625H42C45.3094 0.625 48 2.9793 48 5.875V32.125C48 35.0207 45.3094 37.375 42 37.375H6C2.69063 37.375 0 35.0207 0 32.125V5.875ZM4.5 28.1875V30.8125C4.5 31.5344 5.175 32.125 6 32.125H9C9.825 32.125 10.5 31.5344 10.5 30.8125V28.1875C10.5 27.4656 9.825 26.875 9 26.875H6C5.175 26.875 4.5 27.4656 4.5 28.1875ZM39 26.875C38.175 26.875 37.5 27.4656 37.5 28.1875V30.8125C37.5 31.5344 38.175 32.125 39 32.125H42C42.825 32.125 43.5 31.5344 43.5 30.8125V28.1875C43.5 27.4656 42.825 26.875 42 26.875H39ZM4.5 17.6875V20.3125C4.5 21.0344 5.175 21.625 6 21.625H9C9.825 21.625 10.5 21.0344 10.5 20.3125V17.6875C10.5 16.9656 9.825 16.375 9 16.375H6C5.175 16.375 4.5 16.9656 4.5 17.6875ZM39 16.375C38.175 16.375 37.5 16.9656 37.5 17.6875V20.3125C37.5 21.0344 38.175 21.625 39 21.625H42C42.825 21.625 43.5 21.0344 43.5 20.3125V17.6875C43.5 16.9656 42.825 16.375 42 16.375H39ZM4.5 7.1875V9.8125C4.5 10.5344 5.175 11.125 6 11.125H9C9.825 11.125 10.5 10.5344 10.5 9.8125V7.1875C10.5 6.46562 9.825 5.875 9 5.875H6C5.175 5.875 4.5 6.46562 4.5 7.1875ZM39 5.875C38.175 5.875 37.5 6.46562 37.5 7.1875V9.8125C37.5 10.5344 38.175 11.125 39 11.125H42C42.825 11.125 43.5 10.5344 43.5 9.8125V7.1875C43.5 6.46562 42.825 5.875 42 5.875H39ZM15 8.5V13.75C15 15.202 16.3406 16.375 18 16.375H30C31.6594 16.375 33 15.202 33 13.75V8.5C33 7.04805 31.6594 5.875 30 5.875H18C16.3406 5.875 15 7.04805 15 8.5ZM18 21.625C16.3406 21.625 15 22.798 15 24.25V29.5C15 30.952 16.3406 32.125 18 32.125H30C31.6594 32.125 33 30.952 33 29.5V24.25C33 22.798 31.6594 21.625 30 21.625H18Z" fill="black"/>
</svg>
