<svg width="48" height="38" viewBox="0 0 48 38" fill="none" xmlns="http://www.w3.org/2000/svg">
<path d="M42 0.625H33.9281L33.8344 0.707031L21.9281 11.125H30.5625L30.6562 11.043L42.5437 0.649609C42.3656 0.633203 42.1875 0.625 42 0.625ZM48 11.125V5.875C48 4.63633 47.5031 3.48789 46.6875 2.59375L36.9375 11.125H48ZM27.5719 0.625H18.9281L18.8344 0.707031L6.92813 11.125H15.5625L15.6562 11.043L27.5625 0.625H27.5719ZM6 0.625C2.69063 0.625 0 2.9793 0 5.875V11.125H0.571875L0.665625 11.043L12.5719 0.625H6ZM48 13.75H0V32.125C0 35.0207 2.69063 37.375 6 37.375H42C45.3094 37.375 48 35.0207 48 32.125V13.75Z" fill="black"/>
</svg>
