<svg width="48" height="38" viewBox="0 0 48 38" fill="none" xmlns="http://www.w3.org/2000/svg">
<path d="M24 4.5625C18.5667 4.5625 14.1 6.99062 10.675 10.116C7.46667 13.0527 5.25 16.5391 4.11667 19C5.25 21.4609 7.46667 24.9473 10.6667 27.884C14.1 31.0094 18.5667 33.4375 24 33.4375C29.4333 33.4375 33.9 31.0094 37.325 27.884C40.5333 24.9473 42.75 21.4609 43.8833 19C42.75 16.5391 40.5333 13.0527 37.3333 10.116C33.9 6.99062 29.4333 4.5625 24 4.5625ZM7.95 7.23672C11.875 3.64375 17.2667 0.625 24 0.625C30.7333 0.625 36.125 3.64375 40.05 7.23672C43.95 10.8051 46.5583 15.0625 47.8 17.991C48.075 18.6391 48.075 19.3609 47.8 20.009C46.5583 22.9375 43.95 27.2031 40.05 30.7633C36.125 34.3563 30.7333 37.375 24 37.375C17.2667 37.375 11.875 34.3563 7.95 30.7633C4.05 27.2031 1.44167 22.9375 0.208333 20.009C-0.0666672 19.3609 -0.0666672 18.6391 0.208333 17.991C1.44167 15.0625 4.05 10.7969 7.95 7.23672ZM24 25.5625C27.6833 25.5625 30.6667 22.6258 30.6667 19C30.6667 15.3742 27.6833 12.4375 24 12.4375C23.9417 12.4375 23.8917 12.4375 23.8333 12.4375C23.9417 12.8559 24 13.2988 24 13.75C24 16.6457 21.6083 19 18.6667 19C18.2083 19 17.7583 18.9426 17.3333 18.8359C17.3333 18.8934 17.3333 18.9426 17.3333 19C17.3333 22.6258 20.3167 25.5625 24 25.5625ZM24 8.5C26.829 8.5 29.5421 9.60625 31.5425 11.5754C33.5429 13.5445 34.6667 16.2152 34.6667 19C34.6667 21.7848 33.5429 24.4555 31.5425 26.4246C29.5421 28.3938 26.829 29.5 24 29.5C21.171 29.5 18.4579 28.3938 16.4575 26.4246C14.4571 24.4555 13.3333 21.7848 13.3333 19C13.3333 16.2152 14.4571 13.5445 16.4575 11.5754C18.4579 9.60625 21.171 8.5 24 8.5Z" fill="black"/>
</svg>
