<svg width="22" height="37" viewBox="0 0 22 37" fill="none" xmlns="http://www.w3.org/2000/svg">
<path d="M20.695 35.3398C20.9942 35.037 21.2307 34.6783 21.3911 34.284C21.5515 33.8897 21.6325 33.4676 21.6295 33.042C21.6266 32.6164 21.5397 32.1955 21.3739 31.8035C21.2081 31.4114 20.9666 31.056 20.6632 30.7574L7.96608 18.2351L20.4883 5.53801C21.0918 4.92613 21.4274 4.0996 21.4215 3.24023C21.4155 2.38087 21.0684 1.55906 20.4566 0.955613C19.8447 0.352164 19.0181 0.0165032 18.1588 0.0224626C17.2994 0.0284221 16.4776 0.375514 15.8742 0.987391L1.06047 16.008C0.761273 16.3107 0.524724 16.6695 0.364365 17.0638C0.204005 17.4581 0.122986 17.8801 0.125937 18.3058C0.128889 18.7314 0.215754 19.1523 0.381566 19.5443C0.547379 19.9363 0.78888 20.2918 1.09224 20.5904L16.1128 35.4041C17.3564 36.6305 19.4363 36.616 20.695 35.3398Z" fill="#092D39"/>
</svg>
