<svg width="91" height="55" viewBox="0 0 91 55" fill="none" xmlns="http://www.w3.org/2000/svg">
<rect width="91" height="55" rx="20" fill="#092D39"/>
<path d="M59.3691 29.5296C60.2103 28.6836 60.2103 27.3096 59.3691 26.4636L48.6011 15.6345C47.7599 14.7885 46.3937 14.7885 45.5525 15.6345C44.7112 16.4805 44.7112 17.8545 45.5525 18.7005L54.7994 28L45.5592 37.2995C44.7179 38.1455 44.7179 39.5195 45.5592 40.3655C46.4004 41.2115 47.7666 41.2115 48.6079 40.3655L59.3758 29.5364L59.3691 29.5296ZM35.6796 40.3587L46.4475 29.5296C47.2888 28.6836 47.2888 27.3096 46.4475 26.4636L35.6796 15.6345C34.8384 14.7885 33.4722 14.7885 32.6309 15.6345C31.7897 16.4805 31.7897 17.8545 32.6309 18.7005L41.8779 28L32.6377 37.2995C31.7964 38.1455 31.7964 39.5195 32.6377 40.3655C33.4789 41.2115 34.8451 41.2115 35.6863 40.3655L35.6796 40.3587Z" fill="white"/>
</svg>
